<svg width="12" height="11" viewBox="0 0 12 11" fill="none" xmlns="http://www.w3.org/2000/svg">
<g clip-path="url(#clip0_1686_589)">
<path fill-rule="evenodd" clip-rule="evenodd" d="M6 8.9375C5.562 8.9375 5.139 8.89075 4.7325 8.81134L2.967 9.78416L2.99062 8.1895C1.63725 7.44356 0.75 6.21019 0.75 4.8125C0.75 2.53447 3.1005 0.6875 6 0.6875C8.8995 0.6875 11.25 2.53447 11.25 4.8125C11.25 7.09088 8.8995 8.9375 6 8.9375ZM6 0C2.6865 0 0 2.15497 0 4.8125C0 6.33153 0.879375 7.68419 2.25 8.56591V11L4.87838 9.53803C5.24213 9.59303 5.61637 9.625 6 9.625C9.3135 9.625 12 7.47038 12 4.8125C12 2.15497 9.3135 0 6 0Z" fill="#FF9B27"/>
</g>
<defs>
<clipPath id="clip0_1686_589">
<rect width="12" height="11" fill="white"/>
</clipPath>
</defs>
</svg>
