<svg width="70" height="70" viewBox="0 0 70 70" fill="none" xmlns="http://www.w3.org/2000/svg">
<mask id="mask0_1686_1930" style="mask-type:luminance" maskUnits="userSpaceOnUse" x="0" y="0" width="70" height="59">
<path d="M70 0H0V58.1H70V0Z" fill="white"/>
</mask>
<g mask="url(#mask0_1686_1930)">
<path d="M34.9997 67.6668C53.041 67.6668 67.6663 53.0415 67.6663 35.0002C67.6663 16.9589 53.041 2.3335 34.9997 2.3335C16.9584 2.3335 2.33301 16.9589 2.33301 35.0002C2.33301 53.0415 16.9584 67.6668 34.9997 67.6668Z" fill="#FF6F3E"/>
</g>
<path d="M34.9997 40.2498C42.4095 40.2498 48.4163 34.243 48.4163 26.8332C48.4163 19.4234 42.4095 13.4165 34.9997 13.4165C27.5899 13.4165 21.583 19.4234 21.583 26.8332C21.583 34.243 27.5899 40.2498 34.9997 40.2498Z" fill="#FFDBCF"/>
<mask id="mask1_1686_1930" style="mask-type:luminance" maskUnits="userSpaceOnUse" x="2" y="2" width="66" height="66">
<path d="M34.9997 67.6668C53.041 67.6668 67.6663 53.0415 67.6663 35.0002C67.6663 16.9589 53.041 2.3335 34.9997 2.3335C16.9584 2.3335 2.33301 16.9589 2.33301 35.0002C2.33301 53.0415 16.9584 67.6668 34.9997 67.6668Z" fill="white"/>
</mask>
<g mask="url(#mask1_1686_1930)">
<path d="M34.9997 88.0833C48.2085 88.0833 58.9163 77.3755 58.9163 64.1667C58.9163 50.9579 48.2085 40.25 34.9997 40.25C21.7909 40.25 11.083 50.9579 11.083 64.1667C11.083 77.3755 21.7909 88.0833 34.9997 88.0833Z" fill="#FFDBCF"/>
</g>
</svg>
