<svg width="18" height="18" viewBox="0 0 18 18" fill="none" xmlns="http://www.w3.org/2000/svg">
<g clip-path="url(#clip0_1686_2203)">
<path d="M16.1997 16.1697V6.2236L8.99982 1.83127L1.79996 6.2236V16.1697H5.39989V13.6531C5.39989 11.6308 7.01178 9.99249 8.99982 9.99249C10.9889 9.99249 12.5998 11.6308 12.5998 13.6531V16.1697H16.1997ZM10.7998 18V13.6531C10.7998 12.6425 9.99473 11.8228 8.99982 11.8228C8.00598 11.8228 7.19986 12.6421 7.19986 13.6531V18H1.79996C0.805766 18 0 17.1807 0 16.1697V6.2236C0 5.58014 0.33222 4.98494 0.87467 4.65427L8.07453 0.26087C8.64405 -0.0869566 9.35665 -0.0869566 9.92652 0.26087L17.1264 4.65427C17.6688 4.98494 18 5.58014 18 6.2236V16.1697C18 17.1803 17.1949 18 16.2 18H10.7998Z" fill="#666666"/>
</g>
<defs>
<clipPath id="clip0_1686_2203">
<rect width="18" height="18" fill="white"/>
</clipPath>
</defs>
</svg>
