<svg width="23" height="23" viewBox="0 0 23 23" fill="none" xmlns="http://www.w3.org/2000/svg">
<g clip-path="url(#clip0_1686_1194)">
<path d="M14.5509 13.1271C14.5509 14.8131 13.186 16.178 11.5 16.178C9.81396 16.178 8.44908 14.8131 8.44908 13.1271C8.44908 11.441 9.81396 10.0761 11.5 10.0761C13.186 10.0761 14.5509 11.441 14.5509 13.1271ZM20.7945 5.48086C22.0129 5.48086 23 6.46793 23 7.68641V13.4671V18.3694C23 19.6681 21.9468 20.7213 20.6481 20.7213H2.35195C1.05318 20.7213 0 19.6681 0 18.3694V13.4624V7.68641C0 6.46793 0.987064 5.48086 2.20554 5.48086H6.61663L6.82444 4.60242C7.14086 3.24226 8.35462 2.27881 9.75257 2.27881H13.2522C14.6501 2.27881 15.8639 3.24226 16.1803 4.60242L16.3834 5.48086H20.7945ZM4.6 8.66402C4.6 8.05478 4.10411 7.55889 3.49487 7.55889C2.8809 7.55889 2.38501 8.05478 2.38501 8.66402C2.38501 9.27326 2.8809 9.76916 3.49014 9.76916C4.10411 9.77388 4.6 9.27799 4.6 8.66402ZM16.9407 13.1271C16.9407 10.1234 14.5037 7.68641 11.5 7.68641C8.4963 7.68641 6.05934 10.1234 6.05934 13.1271C6.05934 16.1308 8.4963 18.5677 11.5 18.5677C14.5037 18.5677 16.9407 16.1308 16.9407 13.1271Z" fill="black"/>
</g>
<defs>
<clipPath id="clip0_1686_1194">
<rect width="23" height="23" fill="white"/>
</clipPath>
</defs>
</svg>
