<svg width="12" height="11" viewBox="0 0 12 11" fill="none" xmlns="http://www.w3.org/2000/svg">
<mask id="mask0_1686_630" style="mask-type:luminance" maskUnits="userSpaceOnUse" x="0" y="0" width="12" height="11">
<path d="M12 0.800049H0V11H12V0.800049Z" fill="white"/>
</mask>
<g mask="url(#mask0_1686_630)">
<path d="M6.11622 1.41173C6.17088 1.13272 6.31446 0.953566 6.51072 0.862521C6.6699 0.788119 6.85644 0.781266 7.04982 0.832173C7.21776 0.876227 7.39452 0.966293 7.56348 1.09552C8.02146 1.44502 8.45022 2.10387 8.50488 2.92719C8.5215 3.18075 8.51658 3.45095 8.49318 3.73877C8.47752 3.92869 8.4531 4.1284 8.41992 4.33595H10.3682L10.3769 4.33693C10.6934 4.34965 11 4.42699 11.2588 4.56209C11.4824 4.67957 11.6709 4.84012 11.8018 5.03983C11.9365 5.24541 12.0098 5.49016 11.999 5.77015C11.9912 5.9777 11.9356 6.20286 11.8223 6.44271C11.8867 6.71291 11.917 7.00269 11.875 7.25721C11.8399 7.47357 11.7559 7.66545 11.6054 7.80837C11.6133 8.16573 11.5654 8.46531 11.4697 8.72469C11.3711 8.99097 11.2237 9.21225 11.0342 9.40803C11.0176 9.57939 10.9903 9.74283 10.9472 9.89559C10.8935 10.0875 10.8145 10.2637 10.7041 10.4193C10.3721 10.8892 10.1065 10.8784 9.68556 10.8609C9.62694 10.8589 9.56448 10.8559 9.4668 10.8559H5.65528C5.3125 10.8559 5.04297 10.806 4.79687 10.6827C4.55371 10.5603 4.3457 10.3723 4.12402 10.0943L4.06738 9.93177V5.47743L4.26074 5.42555C4.75195 5.29241 5.13867 4.87145 5.43946 4.36727C5.74805 3.84841 5.96485 3.24144 6.11328 2.75098V1.46166L6.11622 1.41173ZM0.390625 5.01144H3.23047C3.44531 5.01144 3.6211 5.18766 3.6211 5.40303V10.6083C3.6211 10.8237 3.44531 10.9999 3.23047 10.9999H0.390625C0.175781 10.9999 0 10.8237 0 10.6083V5.40303C0 5.18766 0.175781 5.01144 0.390625 5.01144ZM6.72852 1.33635C6.68652 1.35593 6.65232 1.40488 6.63186 1.48907V2.7872L6.6201 2.8616C6.4629 3.38731 6.22854 4.05302 5.88281 4.63355C5.55762 5.17884 5.13574 5.64778 4.58692 5.86413V9.83979C4.73731 10.0189 4.87598 10.1403 5.02832 10.2167C5.19629 10.3009 5.39356 10.3341 5.65528 10.3341H9.4668C9.53514 10.3341 9.62304 10.3381 9.70608 10.341C9.95604 10.3508 10.1133 10.3576 10.2822 10.1188V10.1178C10.3555 10.014 10.4092 9.89169 10.4473 9.75459C10.4883 9.60873 10.5127 9.44625 10.5244 9.27297L10.6045 9.10161C10.7725 8.94207 10.9004 8.76291 10.9824 8.54265C11.0664 8.31549 11.1025 8.04237 11.0821 7.69971L11.0732 7.54503L11.2041 7.46379C11.2939 7.40799 11.3428 7.30227 11.3633 7.17303C11.3965 6.96747 11.3613 6.71585 11.2979 6.48187L11.3183 6.29292C11.4238 6.09027 11.4746 5.90916 11.4814 5.75057C11.4873 5.5861 11.4453 5.44317 11.3672 5.32472C11.2852 5.20039 11.165 5.09857 11.0195 5.02221C10.832 4.92334 10.6055 4.86655 10.3691 4.85676V4.85774H7.7988L7.85646 4.54936C7.91208 4.25077 7.95216 3.96589 7.97556 3.69569C7.99806 3.43137 8.00196 3.18565 7.98732 2.96243C7.94334 2.30456 7.6074 1.78374 7.24902 1.51061C7.13478 1.42348 7.0215 1.36376 6.91896 1.33733C6.83982 1.31579 6.77538 1.31481 6.72852 1.33635Z" fill="#FF4100"/>
</g>
</svg>
