<svg width="25" height="6" viewBox="0 0 25 6" fill="none" xmlns="http://www.w3.org/2000/svg">
<path d="M9.35303 3C9.35303 4.65378 10.6992 6 12.353 6C14.0068 6 15.353 4.65378 15.353 3C15.353 1.34622 14.0068 -1.19209e-07 12.353 -1.19209e-07C10.6992 -1.19209e-07 9.35303 1.34622 9.35303 3ZM12.353 1.23529C13.3261 1.23529 14.1177 2.02689 14.1177 3C14.1177 3.97311 13.3261 4.76471 12.353 4.76471C11.3799 4.76471 10.5883 3.97311 10.5883 3C10.5883 2.02689 11.3799 1.23529 12.353 1.23529Z" fill="#666666"/>
<path d="M21.7061 6C23.3598 6 24.7061 4.65378 24.7061 3C24.7061 1.34622 23.3598 -1.19209e-07 21.7061 -1.19209e-07C20.0523 -1.19209e-07 18.7061 1.34622 18.7061 3C18.7061 4.65378 20.0523 6 21.7061 6ZM21.7061 1.23529C22.6792 1.23529 23.4708 2.02689 23.4708 3C23.4708 3.97311 22.6792 4.76471 21.7061 4.76471C20.7329 4.76471 19.9413 3.97311 19.9413 3C19.9413 2.02689 20.7329 1.23529 21.7061 1.23529Z" fill="#666666"/>
<path d="M3 6C4.65378 6 6 4.65378 6 3C6 1.34622 4.65378 -1.19209e-07 3 -1.19209e-07C1.34622 -1.19209e-07 0 1.34622 0 3C0 4.65378 1.34622 6 3 6ZM3 1.23529C3.97311 1.23529 4.76471 2.02689 4.76471 3C4.76471 3.97311 3.97311 4.76471 3 4.76471C2.02689 4.76471 1.23529 3.97311 1.23529 3C1.23529 2.02689 2.02689 1.23529 3 1.23529Z" fill="#666666"/>
</svg>
