<svg width="25" height="18" viewBox="0 0 25 18" fill="none" xmlns="http://www.w3.org/2000/svg">
<g clip-path="url(#clip0_1686_2193)">
<mask id="mask0_1686_2193" style="mask-type:luminance" maskUnits="userSpaceOnUse" x="0" y="0" width="25" height="18">
<path d="M25 0H0V18H25V0Z" fill="white"/>
</mask>
<g mask="url(#mask0_1686_2193)">
<path d="M2.97618 6C1.33511 6 0 7.33513 0 8.97621C0 10.6173 1.33511 11.9524 2.97618 11.9524C4.61725 11.9524 5.95236 10.6173 5.95236 8.97621C5.95236 7.33513 4.61725 6 2.97618 6Z" fill="#FF4100"/>
<path d="M12.4996 6C10.8585 6 9.52344 7.33513 9.52344 8.97621C9.52344 10.6173 10.8585 11.9524 12.4996 11.9524C14.1406 11.9524 15.4758 10.6173 15.4758 8.97621C15.4758 7.33513 14.1406 6 12.4996 6Z" fill="#FF4100"/>
<path d="M22.024 6C20.3829 6 19.0479 7.33513 19.0479 8.97621C19.0479 10.6173 20.3829 11.9524 22.024 11.9524C23.6651 11.9524 25.0002 10.6173 25.0002 8.97621C25.0002 7.33513 23.6651 6 22.024 6Z" fill="#FF4100"/>
</g>
</g>
<defs>
<clipPath id="clip0_1686_2193">
<rect width="25" height="18" fill="white"/>
</clipPath>
</defs>
</svg>
