<svg width="72" height="72" viewBox="0 0 72 72" fill="none" xmlns="http://www.w3.org/2000/svg">
<g clip-path="url(#clip0_1789_4)">
<path d="M72 0H0V72H72V0Z" fill="#EFF1F3"/>
<path fill-rule="evenodd" clip-rule="evenodd" d="M19.9502 23.089C19.9562 22.2283 20.652 21.5319 21.5126 21.525H49.8878C50.7509 21.525 51.4502 22.2259 51.4502 23.089V48.3111C51.4442 49.1717 50.7484 49.8682 49.8878 49.875H21.5126C20.6495 49.8742 19.9502 49.1742 19.9502 48.3111V23.089ZM48.3004 24.6751H23.1004V46.7251L37.7353 32.087C38.3503 31.4722 39.3473 31.4722 39.9624 32.087L48.3004 40.4408V24.6751ZM26.25 30.975C26.25 32.7147 27.6603 34.125 29.4 34.125C31.1397 34.125 32.55 32.7147 32.55 30.975C32.55 29.2353 31.1397 27.825 29.4 27.825C27.6603 27.825 26.25 29.2353 26.25 30.975Z" fill="white"/>
</g>
<defs>
<clipPath id="clip0_1789_4">
<rect width="72" height="72" fill="white"/>
</clipPath>
</defs>
</svg>
