<svg width="21" height="21" viewBox="0 0 21 21" fill="none" xmlns="http://www.w3.org/2000/svg">
<path d="M10.5 0C10.943 0 11.3039 0.360938 11.3039 0.803906V9.69609H20.1961C20.6391 9.69609 21 10.057 21 10.5C21 10.943 20.6391 11.3039 20.1961 11.3039H11.3039V20.1961C11.3039 20.6391 10.943 21 10.5 21C10.057 21 9.69609 20.6391 9.69609 20.1961V11.3039H0.803906C0.360938 11.3039 0 10.943 0 10.5C0 10.057 0.360938 9.69609 0.803906 9.69609H9.69609V0.803906C9.69609 0.360938 10.057 0 10.5 0Z" fill="white"/>
</svg>
