<svg width="16" height="16" viewBox="0 0 16 16" fill="none" xmlns="http://www.w3.org/2000/svg">
<path d="M11.6876 9.75002C12.3125 8.76667 12.6792 7.6 12.6792 6.34582C12.6792 2.84166 9.84168 0 6.34166 0C2.8375 0 0 2.84166 0 6.34582C0 9.84999 2.83751 12.6917 6.33751 12.6917C7.6083 12.6917 8.79166 12.3167 9.78339 11.675L10.0708 11.475L14.5959 16L16 14.5708L11.4792 10.0458L11.6876 9.75002ZM9.89166 2.8C10.8376 3.74583 11.3583 5.00417 11.3583 6.34167C11.3583 7.6792 10.8376 8.93753 9.89166 9.88336C8.94584 10.8292 7.6875 11.35 6.35004 11.35C5.0125 11.35 3.75417 10.8292 2.80834 9.88336C1.8625 8.93753 1.34166 7.6792 1.34166 6.34167C1.34166 5.00417 1.8625 3.74583 2.80834 2.8C3.75417 1.85417 5.0125 1.33334 6.35004 1.33334C7.6875 1.33334 8.94584 1.85417 9.89166 2.8Z" fill="#666666"/>
</svg>
