<svg width="23" height="23" viewBox="0 0 23 23" fill="none" xmlns="http://www.w3.org/2000/svg">
<path d="M16.8009 14.0157C17.6992 12.6021 18.2264 10.925 18.2264 9.12212C18.2264 4.08489 14.1474 0 9.11614 0C4.0789 0 0 4.08489 0 9.12212C0 14.1594 4.07891 18.2443 9.11017 18.2443C10.9369 18.2443 12.638 17.7052 14.0636 16.7829L14.4768 16.4953L20.9816 23L23 20.9455L16.5013 14.4409L16.8009 14.0157ZM14.2193 4.025C15.579 5.38464 16.3276 7.1935 16.3276 9.11615C16.3276 11.0389 15.579 12.8477 14.2193 14.2073C12.8596 15.567 11.0508 16.3156 9.12819 16.3156C7.20547 16.3156 5.39662 15.567 4.03699 14.2073C2.67734 12.8477 1.92864 11.0389 1.92864 9.11615C1.92864 7.1935 2.67734 5.38464 4.03699 4.025C5.39662 2.66537 7.20547 1.91667 9.12819 1.91667C11.0508 1.91667 12.8596 2.66537 14.2193 4.025Z" fill="#666666"/>
</svg>
