<svg width="24" height="24" viewBox="0 0 24 24" fill="none" xmlns="http://www.w3.org/2000/svg">
<path d="M23.9998 0.819935C24.0001 0.805268 24.0001 0.791135 23.9998 0.776468C23.9987 0.740735 23.9953 0.705535 23.9897 0.670335C23.9878 0.659401 23.9873 0.648735 23.9849 0.637801C23.9758 0.593801 23.963 0.550601 23.9465 0.508734C23.9417 0.496468 23.9355 0.485001 23.9302 0.473001C23.9161 0.441268 23.9001 0.410601 23.8817 0.380734C23.8742 0.368467 23.8667 0.356201 23.8585 0.343934C23.8313 0.304734 23.8019 0.267134 23.7675 0.232734C23.7329 0.198067 23.6947 0.168467 23.6553 0.141C23.6441 0.133267 23.6326 0.126067 23.6209 0.119134C23.5894 0.0996669 23.5571 0.0828668 23.5238 0.0682001C23.5134 0.0636668 23.5035 0.0583335 23.4929 0.0540668C23.4499 0.0372667 23.4057 0.0239334 23.3603 0.0148667C23.3521 0.0132667 23.3435 0.0127334 23.3353 0.0111334C23.2974 0.00473334 23.2593 0.001 23.2209 0.0002C23.2081 -6.66668e-05 23.1955 -6.66668e-05 23.183 0.0002C23.1454 0.001 23.1078 0.00473334 23.0702 0.0111334C23.0609 0.0127334 23.0518 0.0132667 23.0425 0.0151334C23.0014 0.0234001 22.9609 0.0346001 22.9209 0.0495334L0.518949 8.45568C0.219215 8.56822 0.015481 8.84848 0.000814343 9.16849C-0.0135857 9.48822 0.164015 9.78609 0.452282 9.92529L9.6403 14.3594L14.0742 23.5475C14.2083 23.8251 14.4891 24 14.795 24C14.8072 24 14.8192 23.9997 14.8315 23.9992C15.1512 23.9845 15.4318 23.7808 15.5443 23.4811L23.9507 1.0794C23.9657 1.03967 23.9766 0.999402 23.9849 0.958602C23.987 0.947669 23.9878 0.937002 23.9894 0.926069C23.9953 0.890869 23.9987 0.855402 23.9998 0.819935ZM20.023 2.84581L10.076 12.7928L2.83175 9.29702L20.023 2.84581ZM14.703 21.1682L11.2072 13.9242L21.1545 3.97701L14.703 21.1682Z" fill="#FF4100"/>
</svg>
