<svg width="50" height="24" viewBox="0 0 50 24" fill="none" xmlns="http://www.w3.org/2000/svg">
<path d="M12.5014 8.4914C13.4983 8.4914 14.3158 8.47174 14.9538 8.43243C15.6118 8.37346 16.1302 8.27518 16.509 8.13759C16.9078 7.98034 17.177 7.77396 17.3165 7.51843C17.476 7.24324 17.5558 6.88943 17.5558 6.457C17.5558 6.02457 17.4661 5.67076 17.2866 5.39558C17.1271 5.12039 16.7981 4.91401 16.2997 4.77641C15.8012 4.61916 15.1034 4.51106 14.2061 4.45209C13.3288 4.39312 12.1724 4.36364 10.7368 4.36364H0.747691C0.328984 4.36364 0.119631 4.16708 0.119631 3.77396V0.678133C0.119631 0.285011 0.328984 0.0884504 0.747691 0.0884504H10.5574C13.0098 0.0884504 15.0436 0.226042 16.6586 0.501229C18.2736 0.776413 19.5596 1.18919 20.5167 1.73956C21.4737 2.27027 22.1416 2.93858 22.5205 3.74447C22.9192 4.53071 23.1186 5.45455 23.1186 6.51597C23.1186 7.5774 22.9292 8.50123 22.5504 9.28747C22.1915 10.0737 21.5933 10.7322 20.7559 11.2629C19.9384 11.774 18.8518 12.1671 17.496 12.4423C16.1402 12.6978 14.4753 12.8256 12.5014 12.8256H11.3051C9.33119 12.8256 7.66633 12.6978 6.31052 12.4423C4.97464 12.1671 3.888 11.774 3.05058 11.2629C2.23311 10.7322 1.64492 10.0737 1.28603 9.28747C0.927137 8.50123 0.747691 7.5774 0.747691 6.51597V5.83784C0.747691 5.44472 0.947076 5.24816 1.34584 5.24816H5.68246C6.10116 5.24816 6.31052 5.44472 6.31052 5.83784V6.457C6.31052 6.75184 6.3803 7.02703 6.51987 7.28256C6.67938 7.51843 6.93858 7.72482 7.29747 7.90172C7.6763 8.07862 8.18473 8.22604 8.82276 8.34398C9.48073 8.44226 10.3082 8.4914 11.3051 8.4914H12.5014ZM19.7091 19.0762V23.4103C19.7091 23.8034 19.5098 24 19.111 24H14.8043C14.4055 24 14.2061 23.8034 14.2061 23.4103V19.0762H9.391V23.4103C9.391 23.8034 9.19162 24 8.79285 24H4.48615C4.08738 24 3.888 23.8034 3.888 23.4103V19.0762H0.628061C0.209354 19.0762 0 18.86 0 18.4275V15.3022C0 14.9091 0.209354 14.7125 0.628061 14.7125H22.9691C23.3878 14.7125 23.5971 14.9091 23.5971 15.3022V18.4275C23.5971 18.86 23.3878 19.0762 22.9691 19.0762H19.7091ZM27.659 4.68796C27.6989 4.3145 27.9082 4.12776 28.287 4.12776H48.3252C48.7439 4.12776 48.9532 4.32432 48.9532 4.71744V6.19165C48.9532 6.58477 48.7439 6.78133 48.3252 6.78133H32.8928L32.7732 8.10811H48.8635C49.2822 8.10811 49.4916 8.30467 49.4916 8.69779V10.5553C49.4916 10.9484 49.2822 11.145 48.8635 11.145H41.1174V12.7371H49.3719C49.7906 12.7371 50 12.9337 50 13.3268V15.5381C50 15.9509 49.7906 16.1572 49.3719 16.1572H27.0309C26.6122 16.1572 26.4029 15.9509 26.4029 15.5381V13.3268C26.4029 12.9337 26.6122 12.7371 27.0309 12.7371H35.3153V11.145H27.5992C27.3998 11.145 27.2403 11.0958 27.1206 10.9975C27.001 10.8993 26.9512 10.742 26.9711 10.5258L27.659 4.68796ZM27.5094 20.9926C27.0907 20.9926 26.8814 20.8157 26.8814 20.4619V18.2506C26.8814 17.8575 27.0907 17.6609 27.5094 17.6609H48.9831C49.3819 17.6609 49.5813 17.8575 49.5813 18.2506V23.145C49.5813 23.5381 49.3819 23.7346 48.9831 23.7346H44.3774C43.9786 23.7346 43.7792 23.5381 43.7792 23.145V20.9926H27.5094ZM26.672 0.589679C26.672 0.196561 26.8814 0 27.3001 0H48.6242C49.043 0 49.2523 0.196561 49.2523 0.589679V2.29975C49.2523 2.69288 49.043 2.88944 48.6242 2.88944H27.3001C26.8814 2.88944 26.672 2.69288 26.672 2.29975V0.589679Z" fill="#FF4100"/>
</svg>
